<mxfile host="app.diagrams.net" modified="2022-07-29T11:01:26.726Z" agent="5.0 (Windows NT 10.0; Win64; x64) AppleWebKit/537.36 (KHTML, like Gecko) Chrome/103.0.5060.134 Safari/537.36" etag="VRYDp4hYOOCHT9vlAjci" version="20.2.2" type="github">
  <diagram id="e6aI_1Ch3EgL3JL5dAhX" name="Page-1">
    <mxGraphModel dx="1955" dy="1020" grid="1" gridSize="10" guides="1" tooltips="1" connect="1" arrows="1" fold="1" page="1" pageScale="1" pageWidth="3300" pageHeight="2339" background="#283618" math="0" shadow="0">
      <root>
        <mxCell id="0" />
        <mxCell id="1" parent="0" />
        <mxCell id="ZBXnXzImjkYbVcLpGCFE-5" style="edgeStyle=orthogonalEdgeStyle;rounded=1;orthogonalLoop=1;jettySize=auto;html=1;exitX=1;exitY=0.5;exitDx=0;exitDy=0;entryX=0;entryY=0.5;entryDx=0;entryDy=0;fontSize=20;fontColor=#FEFAE0;strokeColor=#DDA15E;fillColor=#BC6C25;strokeWidth=4;" edge="1" parent="1" source="ZBXnXzImjkYbVcLpGCFE-1" target="ZBXnXzImjkYbVcLpGCFE-3">
          <mxGeometry relative="1" as="geometry" />
        </mxCell>
        <mxCell id="ZBXnXzImjkYbVcLpGCFE-8" style="edgeStyle=orthogonalEdgeStyle;rounded=1;orthogonalLoop=1;jettySize=auto;html=1;exitX=1;exitY=0.5;exitDx=0;exitDy=0;entryX=0;entryY=0.5;entryDx=0;entryDy=0;fontSize=20;fontColor=#FEFAE0;strokeColor=#DDA15E;strokeWidth=4;fillColor=#BC6C25;" edge="1" parent="1" source="ZBXnXzImjkYbVcLpGCFE-1" target="ZBXnXzImjkYbVcLpGCFE-6">
          <mxGeometry relative="1" as="geometry" />
        </mxCell>
        <mxCell id="ZBXnXzImjkYbVcLpGCFE-11" style="edgeStyle=orthogonalEdgeStyle;rounded=1;orthogonalLoop=1;jettySize=auto;html=1;exitX=1;exitY=0.5;exitDx=0;exitDy=0;entryX=0;entryY=0.5;entryDx=0;entryDy=0;fontSize=20;fontColor=#FEFAE0;strokeColor=#DDA15E;strokeWidth=4;fillColor=#BC6C25;" edge="1" parent="1" source="ZBXnXzImjkYbVcLpGCFE-1" target="ZBXnXzImjkYbVcLpGCFE-9">
          <mxGeometry relative="1" as="geometry" />
        </mxCell>
        <mxCell id="ZBXnXzImjkYbVcLpGCFE-14" style="edgeStyle=orthogonalEdgeStyle;rounded=1;orthogonalLoop=1;jettySize=auto;html=1;exitX=1;exitY=0.5;exitDx=0;exitDy=0;entryX=0;entryY=0.5;entryDx=0;entryDy=0;fontSize=20;fontColor=#FEFAE0;strokeColor=#DDA15E;strokeWidth=4;fillColor=#BC6C25;" edge="1" parent="1" source="ZBXnXzImjkYbVcLpGCFE-1" target="ZBXnXzImjkYbVcLpGCFE-12">
          <mxGeometry relative="1" as="geometry" />
        </mxCell>
        <mxCell id="ZBXnXzImjkYbVcLpGCFE-17" style="edgeStyle=orthogonalEdgeStyle;rounded=1;orthogonalLoop=1;jettySize=auto;html=1;exitX=1;exitY=0.5;exitDx=0;exitDy=0;entryX=0;entryY=0.5;entryDx=0;entryDy=0;fontSize=20;fontColor=#FEFAE0;strokeColor=#DDA15E;strokeWidth=4;fillColor=#BC6C25;" edge="1" parent="1" source="ZBXnXzImjkYbVcLpGCFE-1" target="ZBXnXzImjkYbVcLpGCFE-15">
          <mxGeometry relative="1" as="geometry" />
        </mxCell>
        <mxCell id="ZBXnXzImjkYbVcLpGCFE-20" style="edgeStyle=orthogonalEdgeStyle;rounded=1;orthogonalLoop=1;jettySize=auto;html=1;exitX=1;exitY=0.5;exitDx=0;exitDy=0;entryX=0;entryY=0.5;entryDx=0;entryDy=0;fontSize=20;fontColor=#FEFAE0;strokeColor=#DDA15E;strokeWidth=4;fillColor=#BC6C25;" edge="1" parent="1" source="ZBXnXzImjkYbVcLpGCFE-1" target="ZBXnXzImjkYbVcLpGCFE-18">
          <mxGeometry relative="1" as="geometry" />
        </mxCell>
        <mxCell id="ZBXnXzImjkYbVcLpGCFE-23" style="edgeStyle=orthogonalEdgeStyle;rounded=1;orthogonalLoop=1;jettySize=auto;html=1;exitX=1;exitY=0.5;exitDx=0;exitDy=0;entryX=0;entryY=0.5;entryDx=0;entryDy=0;fontSize=20;fontColor=#FEFAE0;strokeColor=#DDA15E;strokeWidth=4;fillColor=#BC6C25;" edge="1" parent="1" source="ZBXnXzImjkYbVcLpGCFE-1" target="ZBXnXzImjkYbVcLpGCFE-21">
          <mxGeometry relative="1" as="geometry" />
        </mxCell>
        <mxCell id="ZBXnXzImjkYbVcLpGCFE-33" style="edgeStyle=orthogonalEdgeStyle;rounded=1;orthogonalLoop=1;jettySize=auto;html=1;exitX=0.5;exitY=1;exitDx=0;exitDy=0;entryX=0.5;entryY=0;entryDx=0;entryDy=0;fontFamily=Tahoma;fontSize=20;fontColor=#000000;strokeColor=#DDA15E;strokeWidth=4;fillColor=#BC6C25;dashed=1;dashPattern=1 1;" edge="1" parent="1" source="ZBXnXzImjkYbVcLpGCFE-1" target="ZBXnXzImjkYbVcLpGCFE-32">
          <mxGeometry relative="1" as="geometry" />
        </mxCell>
        <mxCell id="ZBXnXzImjkYbVcLpGCFE-1" value="" style="rounded=1;whiteSpace=wrap;html=1;fontColor=#FEFAE0;strokeColor=#DDA15E;fillColor=#BC6C25;" vertex="1" parent="1">
          <mxGeometry x="160" y="465" width="130" height="70" as="geometry" />
        </mxCell>
        <mxCell id="ZBXnXzImjkYbVcLpGCFE-2" value="&lt;b style=&quot;&quot;&gt;&lt;font style=&quot;font-size: 20px;&quot;&gt;Trim-A&lt;/font&gt;&lt;/b&gt;" style="text;html=1;strokeColor=none;fillColor=none;align=center;verticalAlign=middle;whiteSpace=wrap;rounded=0;fontColor=#FEFAE0;" vertex="1" parent="1">
          <mxGeometry x="185" y="480" width="80" height="40" as="geometry" />
        </mxCell>
        <mxCell id="ZBXnXzImjkYbVcLpGCFE-3" value="" style="rounded=1;whiteSpace=wrap;html=1;fontSize=20;fontColor=#FEFAE0;strokeColor=#DDA15E;fillColor=#BC6C25;" vertex="1" parent="1">
          <mxGeometry x="460" y="140" width="150" height="60" as="geometry" />
        </mxCell>
        <mxCell id="ZBXnXzImjkYbVcLpGCFE-4" value="&lt;font face=&quot;Tahoma&quot;&gt;Seat Belt fit&amp;nbsp;&lt;/font&gt;" style="text;html=1;strokeColor=none;fillColor=none;align=center;verticalAlign=middle;whiteSpace=wrap;rounded=0;fontSize=20;fontColor=#FEFAE0;" vertex="1" parent="1">
          <mxGeometry x="477.5" y="155" width="115" height="30" as="geometry" />
        </mxCell>
        <mxCell id="ZBXnXzImjkYbVcLpGCFE-6" value="" style="rounded=1;whiteSpace=wrap;html=1;fontSize=20;fontColor=#FEFAE0;strokeColor=#DDA15E;fillColor=#BC6C25;" vertex="1" parent="1">
          <mxGeometry x="460" y="235" width="150" height="80" as="geometry" />
        </mxCell>
        <mxCell id="ZBXnXzImjkYbVcLpGCFE-7" value="&lt;font face=&quot;Tahoma&quot;&gt;Cable or Wire Harnessing&amp;nbsp;&lt;/font&gt;" style="text;html=1;strokeColor=none;fillColor=none;align=center;verticalAlign=middle;whiteSpace=wrap;rounded=0;fontSize=20;fontColor=#FEFAE0;" vertex="1" parent="1">
          <mxGeometry x="468.75" y="247.5" width="132.5" height="55" as="geometry" />
        </mxCell>
        <mxCell id="ZBXnXzImjkYbVcLpGCFE-9" value="" style="rounded=1;whiteSpace=wrap;html=1;fontSize=20;fontColor=#FEFAE0;strokeColor=#DDA15E;fillColor=#BC6C25;" vertex="1" parent="1">
          <mxGeometry x="460" y="350" width="150" height="80" as="geometry" />
        </mxCell>
        <mxCell id="ZBXnXzImjkYbVcLpGCFE-10" value="&lt;font face=&quot;Tahoma&quot;&gt;Shock absorber fit&lt;/font&gt;" style="text;html=1;strokeColor=none;fillColor=none;align=center;verticalAlign=middle;whiteSpace=wrap;rounded=0;fontSize=20;fontColor=#FEFAE0;" vertex="1" parent="1">
          <mxGeometry x="468.75" y="362.5" width="132.5" height="55" as="geometry" />
        </mxCell>
        <mxCell id="ZBXnXzImjkYbVcLpGCFE-30" style="edgeStyle=orthogonalEdgeStyle;rounded=1;orthogonalLoop=1;jettySize=auto;html=1;exitX=1;exitY=0.5;exitDx=0;exitDy=0;fontFamily=Tahoma;fontSize=20;fontColor=#000000;strokeColor=#DDA15E;strokeWidth=4;fillColor=#BC6C25;" edge="1" parent="1" source="ZBXnXzImjkYbVcLpGCFE-12" target="ZBXnXzImjkYbVcLpGCFE-28">
          <mxGeometry relative="1" as="geometry" />
        </mxCell>
        <mxCell id="ZBXnXzImjkYbVcLpGCFE-12" value="" style="rounded=1;whiteSpace=wrap;html=1;fontSize=20;fontColor=#FEFAE0;strokeColor=#DDA15E;fillColor=#BC6C25;" vertex="1" parent="1">
          <mxGeometry x="460" y="460" width="150" height="80" as="geometry" />
        </mxCell>
        <mxCell id="ZBXnXzImjkYbVcLpGCFE-13" value="&lt;font face=&quot;Tahoma&quot;&gt;Accel, break pedal fit&lt;/font&gt;" style="text;html=1;strokeColor=none;fillColor=none;align=center;verticalAlign=middle;whiteSpace=wrap;rounded=0;fontSize=20;fontColor=#FEFAE0;" vertex="1" parent="1">
          <mxGeometry x="468.75" y="472.5" width="132.5" height="55" as="geometry" />
        </mxCell>
        <mxCell id="ZBXnXzImjkYbVcLpGCFE-15" value="" style="rounded=1;whiteSpace=wrap;html=1;fontSize=20;fontColor=#FEFAE0;strokeColor=#DDA15E;fillColor=#BC6C25;" vertex="1" parent="1">
          <mxGeometry x="460" y="580" width="180" height="80" as="geometry" />
        </mxCell>
        <mxCell id="ZBXnXzImjkYbVcLpGCFE-16" value="&lt;font face=&quot;Tahoma&quot;&gt;Air bag sensor fit&lt;/font&gt;" style="text;html=1;strokeColor=none;fillColor=none;align=center;verticalAlign=middle;whiteSpace=wrap;rounded=0;fontSize=20;fontColor=#FEFAE0;" vertex="1" parent="1">
          <mxGeometry x="469.69" y="592.5" width="160.62" height="55" as="geometry" />
        </mxCell>
        <mxCell id="ZBXnXzImjkYbVcLpGCFE-18" value="" style="rounded=1;whiteSpace=wrap;html=1;fontSize=20;fontColor=#FEFAE0;strokeColor=#DDA15E;fillColor=#BC6C25;" vertex="1" parent="1">
          <mxGeometry x="460" y="700" width="180" height="80" as="geometry" />
        </mxCell>
        <mxCell id="ZBXnXzImjkYbVcLpGCFE-19" value="&lt;font face=&quot;Tahoma&quot;&gt;Roof/floor Trim&lt;/font&gt;" style="text;html=1;strokeColor=none;fillColor=none;align=center;verticalAlign=middle;whiteSpace=wrap;rounded=0;fontSize=20;fontColor=#FEFAE0;" vertex="1" parent="1">
          <mxGeometry x="469.69" y="712.5" width="160.62" height="55" as="geometry" />
        </mxCell>
        <mxCell id="ZBXnXzImjkYbVcLpGCFE-21" value="" style="rounded=1;whiteSpace=wrap;html=1;fontSize=20;fontColor=#FEFAE0;strokeColor=#DDA15E;fillColor=#BC6C25;" vertex="1" parent="1">
          <mxGeometry x="460" y="820" width="150" height="80" as="geometry" />
        </mxCell>
        <mxCell id="ZBXnXzImjkYbVcLpGCFE-22" value="&lt;font face=&quot;Tahoma&quot;&gt;Sunvisor Fit&amp;nbsp;&lt;/font&gt;" style="text;html=1;strokeColor=none;fillColor=none;align=center;verticalAlign=middle;whiteSpace=wrap;rounded=0;fontSize=20;fontColor=#FEFAE0;" vertex="1" parent="1">
          <mxGeometry x="470.94" y="832.5" width="130.31" height="55" as="geometry" />
        </mxCell>
        <mxCell id="ZBXnXzImjkYbVcLpGCFE-28" value="" style="whiteSpace=wrap;html=1;aspect=fixed;fontFamily=Tahoma;fontSize=20;fontColor=#FEFAE0;strokeColor=#DDA15E;fillColor=#FFFFFF;" vertex="1" parent="1">
          <mxGeometry x="700" y="405" width="190" height="190" as="geometry" />
        </mxCell>
        <mxCell id="ZBXnXzImjkYbVcLpGCFE-32" value="" style="rounded=1;whiteSpace=wrap;html=1;fontFamily=Tahoma;fontSize=20;fontColor=#000000;strokeColor=#DDA15E;fillColor=#BC6C25;arcSize=7;" vertex="1" parent="1">
          <mxGeometry x="60" y="620" width="268.75" height="190" as="geometry" />
        </mxCell>
        <mxCell id="ZBXnXzImjkYbVcLpGCFE-35" value="" style="shape=image;verticalLabelPosition=bottom;labelBackgroundColor=default;verticalAlign=top;aspect=fixed;imageAspect=0;image=data:image/jpeg,/9j/2wBDAAQDAwQDAwQEBAQFBQQFBwsHBwYGBw4KCggLEA4RERAOEA8SFBoWEhMYEw8QFh8XGBsbHR0dERYgIh8cIhocHRz/2wBDAQUFBQcGBw0HBw0cEhASHBwcHBwcHBwcHBwcHBwcHBwcHBwcHBwcHBwcHBwcHBwcHBwcHBwcHBwcHBwcHBwcHBz/wgARCAH0AfQDASIAAhEBAxEB/8QAHAABAAIDAQEBAAAAAAAAAAAAAAEFAgQGAwcI/8QAFwEBAQEBAAAAAAAAAAAAAAAAAAECA//aAAwDAQACEAMQAAAB+/gAAAAAAAAAAAAAAAAAAAAAAAAAAAAAAAAAAAAAAAAAAAAAAAAAAAAAAAAAAAAAAAAAAAAAAAAAAAAAAAAAAAAAAAAAAAAAAAAAAAAAAAAAAAAAAAAAAAAAAAAAAAAAAAAAAAAAAAAAAAAAAAAAAAAAAAAAAAAAAAAAAAAAAAAAAAAAAAAAAAAAAAAAAAAAAAAAAiQAAAAAAAAAAAAAAAAAAAAAAAAAAAAAAAAAAAAAAAAAAAAAAAAAAAAAAAAAAAAAAAAAAAAAIkQkAAAAAAAAAAEEgRMEgIkAAAAAAAAAAAAAAIExMEgIgyARIIJAAIJiQAAAiYJY6ibsc1Qx3vr+f+8r6NCVgkAiQAAAAAIkAAgExMCYkQkIkAAIkIkiYkARIIkRMEtXSS28+d8bm8q42tSr1umR+eed66g3y3fr35/7bN+6W3G9Fz72EotmAlAEgAAABEgCEkAAlAmEkJCEhAkCJAglHhHuqtC56HSpdi5z8NzYsq9i19iv9N5NeHvq0a9N4/OuaPo/zvna7WLLoOG9FvfovzP6Hjf0yCUTUSESECJFAECYkRIQAAiYChESTREkSiE69elvjzOrc9LXa21rOmt/Zazbsc5dT19vCa94oubs+gV/yznT6vzHz/W1npKjT3l0cehuTjbnqvQp7uZjW6Gt6jFv2OV1KAJIlASAAESISITAmPE948/SIlBKJBgZqyus6PV5r3s2NKz3GOf273K2u2N6JrX950Zd+OT5g+mU3ymqs+j8jzOFm/pxZ3VRPWWmc8ba33nZj663jVhnzHM4v0uq+U6Mv0TY+cd7m/aun43qrdljlRAlEiUVIAAISMZSRr7HDSOYypNT6Db8Z9Fs3Mudxi80NbOzXwudgprDeyl1/T1TURhQHQvnXM2fVub+badnZc5UeUu/q7m/ZQ59P7y01pu4sox0KsZ47npr6NQcDqx01BNjHO+/d9W18y676ReycZ1N5tmrZx7WskGSJAJiVAAAIkIDR4/pecYw57p8NThfoPzPwzr73peFfZ1HvMTWSo587bS+Yc9Z9T575zXnXVHM7Rv6Vpd2clZdfElFdYM3cw0aSzovPhaea+hc9yUru1O9YRQ7HY3y/Prv6Nd1wXS9ZvpRWll6mtse+S+XrORGUSSDJE0iQAAAAiRAKfnuk5xjxnFrNT8O/QvxPOqf6p8B7Dpr7vQ8xymM9lX8vZaYV3a9Fm/Oul6HKTHY8h65VFLL1ejx1fHS0tZ5yxrblmUm51/SVwdx9AtbeCves3DnrO39or9nbzrw9PWTDLKTHKRCZMcoEgSUAAAAiYJQETEa3Kdlylzpa+3r3M8F2lZH5ntus8dXqrjDqmaqfatNxzuljXX09DmuertacvnjlsS1eXTXxwtr9Dtzh77qNuqTftPWtLZ2cjX9fTKPPLKaJmsWSISIjIQkAExUgAAAAQkxTjDDLxMKezqYqdf01dYantrlZrXWlm6mjs18unhu65Ptp7DWHlbXCcpZdlcVx15024UdnY+1afvseh4Ze2R5Z5TUMhEgAmJISIkISIJIkAAAAAAEAiRh5+uEa1Zb6scNN58tk7Wu5711Oor6rGMaq035ef2+ns15e46WwspLO02ba/Z2vQ8PX0yPPPIRKQlQAAkRIIkRIAAAAARIAAAiYBMAERlBhr7WEV1B1WtH534T9W8XHy/6Ln0i69pvbqaW5t+umvsemZhnnJjOQhKgAAAAExIRJEwJAAAAAAAAAAAgAAGOQ8/P3g09ex84rMrKDW9vTMwyzkiclAAAAAJgATCQgSiREggSAAAAAAAAAABEiEwAIkYshhGYxlIkABIiYJBEoBJCRCRAEhEgAAAAAAAAAAAAiRCREhCRACRCRCQAAAiQAAAAAAAAAAAAAAABEgAAAAABCRCQiQAAAAABEgAAAAAAAAAAAAAAAAAAAAAAAAIJAAAAAAAAAAAAAAAAAAAAAAAAAAAAAAAAAAAAAAAAAAAAAAAAAAAAAAAAAAAAAAAAAAAAAAAAAAAAAAAAAAAAAAAAAAAAAAAAAAAAAAAAAAAAAAAAAAAAAAAAAAAAAAAAAAAAAAAAAAAAAAAAAAAAAAAAAAAAAAAAAAAAAAAAAAAAAAAAAAAAAAAAAAAAAAAAAAAAAAAAAAAAAAAAAAAAAAAAB//EACwQAAICAgIBAgUEAgMAAAAAAAIDAAEEBRESEyFQBhAUIkAVIDEyQqAjM0H/2gAIAQEAAQUC/wBKDyD297PJWEbt0rt+87RnxU1B6TfLzC92sqGHlrCFsCur8zY9ZVW5zG47lG/t+pFd6bDwnrUwls9yJwBDzaqFktZPE27rHGoKxnjPluILg32CzHyFB0Bxcz4Jzmjsdq4QVh5NZeN7bZVULLWMLOK5ZtZKxzuxSHND6eC5SRH5kwRmdkYr1uxME4zU4VzX5Gt0a8nYMyT+E284PtRNAIecFQsxhTxuODiegpCCs54qlVQ18mZC1R+2UNO3d9XbUrjs++SeZ3YlcHGI7TrmML4aVWPk+zcwslYw86Ex7oGMVykAE8fr47lLGvnzG5ilTI3ixj92wo7ZEcLKM4RFZcQMQ2ReqOJ1ygLw0E8N1NOHGR7GTBGHnAM+vYcu2tscTtQY4VYquUn1oar5+UKjdmlcyd39uVujbG5xHDaZfLrfK8VjIGuqY+OsLsanpUq/uNkG+81yLXOPT88shYRmy4huyGwMZhwMQRsU8TxXzSR/YTgCO2yVTJ398M2ZFTckp3I64q6qrKBhtZB16xgqWucdZzKZLeEPZKXMjeL5wc0s1mFhJ6/i2Y1KOi/fZUMPNWELPM5/zOgYBXAxl1BVOkoKr58xuUtUbu1hH71hxmeZxmRfBFZ3cEWNgYBlA1yhnUBllVSynfrDfVRmzWuP3sZtHNlsM4rFIy1mAYXg2QUBen4TW0oc3PZ0DPM7SuyFWUxUq+1QnAEPOqpeU05WO1krCGoKBCUFygqr+XM5jdilVO3tVH7pjYeWZy3dp5J5OaFJtpWvi8ZQD1G1+O+P5K2UqMyxCP2w1Hbnm25zmwuxwMciidaZTF0nMxtQIxOFQxaesGvw87KtjngZ12+7XZf0zLWDKszxbsnMlYhFKxwGCF8eOUNV+wmCFO2+OuP38dtnMhZNzycy3cEJkcHBcyDrggo6UsV8V/arEIT6qMzhGO24jD2rLhvYydLKDj3cVryKY+nK5j6ionWjUXjVUBUFcqpx+FlH0SI1PF2mfi+iG1NJnd6eqmrwjtixXOOP2MyVLpm7UNZG/bcdnsOG6ijH1cJ0XRnB17rqteHIiIUN3PunFVCaIxuwCN28bsWnLMjlL5gosrXg2cTrL5x9TxE62qi8OqgIqoK5QShnH4mw58QjxVXDGjmzC8Zyso1FgbRWam8isXZTniO2OOmsj4gAI3dPbHZdlCzIzN9PrYpOVkwdT9ysJKrqvkXbrRDwWWIRuzAIzb9ozLay/W547g493FYF3E627idXFa+ovDqBjQUzxzpOJx+NsP8Ar/wr+KvibDHp69nkMVNfsWqK8/6oK3rKx37JzI3IqozNEYza1z5shpjqsrJitCkYvGUqvtudOLv0q2RmUAU3aCMbsmHDcwp/MFdlAxii8G7i9ZzF6ziK19VAw+IGPxBTKXKGdZx+TnVygv63Lucdx+J8XowC6lr8m+Dd1x8nZfaqsvMJejc2YmiRjwVDVDzz/ld1zbhEW5oBTNpzGZL2Qxnpx1lIuLwbKK1vqnXVUXgxeJVQcepSalLnSUM4+XH5Tw8iv/LqXxyM+IkC3G44mKfRmPjjm4qtLjY8tPpUKuoVdDCfQUewWMLPJkunHPEE7VVc834ruDhkcXrLiNXxFa+qgYlQEcSlSgnSdZx+fzHB0ZC+2BfBZ6/Ks/h8jv8ASTU7BrqsrqMZQy8rim7ABu8tzq8LTlJUF2yHd3OllBxrKK1/MVrK4VgVUDFqoCOJS5QzicexXcsplwrhFO3q7+qlXdlRfVIHqt2yrny5L5WLdwFqXLZLvmVVykWVqwruJ11ReBUXiUMBFSlSlzpOs4nE49iuFHetV6wp/NugVxRceRX24dCtcJk73OOTBdlAxbuKwYrCqovFqDjwVSlzrKqcez3CjRmUXgumCwYwvRd+jaro66APUrELuDjQMKKwYvEgY/EFUoJ1nE4nHtNy6hDMnH71mFka1qd3juh7JMHPDrbvJVIs4GJAw4GLAx4CeJS50lDOJx7bdS6hhMvDFo7bQ2N+LITevCzmMj0DGg48FMFUoJQzicTj3DiXUII7GE6ydKLLTqvFacfiAmUEoJQzj3XiXUsJa5aZSpQSqnE4944nE6zicTj/AE2//8QAIREAAwACAgEFAQAAAAAAAAAAAAEREBICQCEDIDAxgFD/2gAIAQMBAT8B/HF7lHyNmKnPkz0+QuvTYdNBcEfR5GqapdSmxseWa4pSiLldClKzU1R9F9+pPmVNobM8s1IUuaUrxDX5+QmIcxTzie2E6Twh5bzCE6rwhj8MRDXtrEpO40T+C/zz/8QAIBEAAgICAgIDAAAAAAAAAAAAABEBECBAITASgAIxQf/aAAgBAgEBPwH1VR4nAj5bKOBjpXOpAjgdIiMp0UJDHlMkUxj7Igk8RU7QhYOmSLtingsHbHgu6K/cHbGPVgZJEkVI8FrzTQ9xoe/J9evX/8QAOBAAAgEDAQcCAwQKAwEAAAAAAAERAiExIgMQEkFRYXEyUCBikQQTQIEUIzNCUnJzoKGxBTRT0f/aAAgBAQAGPwL+ygjiU9PfL1ETHkjZ7Pa7V/KoRw7b/j1P9R2Pu/vF2Ts17vdnU0pEtuDMSfcUO7XqLbWpC2f2qhfaNkv4vUvFRT9p2SW1UcKqq9dPysey2jXyPr7ndmlEK3gn/ZNZFNDZL4Uiqmp1XUZP13qXpq/iRI2bT7Opez2lDfhol/tMKDZ7anFS9uudfBpS3XZ37GmiP5i9bX8pj6771IdG2pprp7nC3VTTyayj/vOP6ZV+iqrabeum+0qHXW89DabL/wA6/wDftd6kQrlv8Gpsmtk06l2FZUr/ACXl+SyjfqqwQoIpsi9TLETJdwaU2Q3wpZPtWyTbsnf2j1S+xpRlpF2yHEsts8dS9X0MfBqqRFCktVB6myxndpof5lLqqS8C0zV3LJIXCpWTauIq4FPsl2aU6i1MHqdy9UGJZ6eHyTU22W3+pGSFZEcUR03Ze6x6Ynmz9ZUNLZ6lzFbBp5il3M2IwbWt243bx7DepGiifJmF2Ls1ZNNFu5lJdkJ5ff4L1IzI1RFJHEzwcTkcuSEpL6UTU2+hHCl4JVkct3/09W5JNULuKanW/wAN6kWfx3Z1ZoSL8RNVRiT0wTJZfBqrXg0qS1XCuxdv6md3UappsjVVHgpeWKmm3gwTz6Elx4HBmDLe5PAp/CSyVXwLsa8dTjoqkja46krdeosvqWsXNTFw0mYXYnrv7lxzV9B8KPU/yMl5sOWyxxKI7j4q3PYsl+ZbIrEPOTNy8Hc0JnqaLtuTBgTaLox+FdNMwiZwPkKb7N+omm8kfuv/AAc7mpnV/UtSl5HNT8FvgmppHq4vBoik/aMzuXMimW+w+LSu5Dmpjtw/7FTpbXMjCLFz1KxbJYvU9+C6MGDH4aqM4OcDg4qadRDP0ep6l6RrmOnDosXfE/hmqtKDSpZoinwXrbY1ncr5NFDa6i47eCnS88x4/LmPkZO5aPzHquWlli7e+xgwYMfiaUupfnu6iqp9NTKdpTVDowbKriSrq/d7nyV2e9ztFPRGih+WeuF9C9UsjA3MkJSzRTE9R07Xat/LSTTQuLuQ0/yNNkasIVjA8WIpMwXl7sblYwYMfjKfPwOlq7wfc4fNlOtp0viQtpOUUJJcSV2Pi2j8GXYRiY6GhOPBTV6Z6k1TW+fItRQmKJOW5qYRmDJZQXr3YMGNysTHsHhkI7b+I7s4eRTXyb4S13jwSqKoZNdcTk1TU3iSKUkaRTMHLhe7JFOex/CaqnUW+G63Y9irp6rdglY3Vt5WByKB7Gptak5FFE+S1o5D5F7+BzuuzRS2aq+BF5q8loRHPfg5mPZ61u8nOBrkaNon5Fs8xzKeohtHJHVmihx1ZO02kL5TEvv8N092PalX0O264x1LJFuF0jfK5a5pphfMa9pL6Ulkp67p3dzG7Bj2yHgdL5GNy6klWMZIblM0pIyxySt+DHuPFcndBHIrfUpoXItuuY3Y90mlOrYv909fDVzVRaqUWYuiJc7p94aaHVRSRLNSYre+Q1JPCjH9q5//xAAsEAACAgIBAwMDBQADAQAAAAABEQAhMUFREGFxgZGhIDBAULHB0fBgoOHx/9oACAEBAAE/If8AoP5/5F6fn/upX+iF/jkoZEwJ4BjCHv8A6QAlb4ttXlUb7QCul5PQoWmwlF+CX/jH0GP1NzHA8mBDdOJRp6EyvtycAyddv+ISmXj2Q5iR2zEBogyH7g/aV0ddcvIuYZPvLY9+/wCfj8TELgfL5My63D+ZkhHqlieWYCewKg9oNkw3ALmnccGACagiv4v/AGAJYESglXmPeCBdiflesAjA22AKZfkQ3gPyt/iv8LP1bgCwExDPslA15cLZPhwCRsnUAAFHNWhSf7ZARdxAAQUM1bt1w49YqKHb9o70Ih4O48w4aQ1l+8SrTEfbsB8wKN0tQHEuuq/AP++p+g46P74/DxmPDv2hIhJwUVX+bma1wTCAD1sOAMJJ7/WEEqSwbaBN/K/iJAA4HQ+sClA2hYQnm/6jIgAEC5+2qMrQsY2bmSdicSyOe0IADMh2lgMybfXH1ev5xACyBDpHgQU0L1uUvcAYRLXgRHpQD/YQNQvWHrGtvoESUrmJTzCAyRC+FvcYlFzGFDdxpfaZMzg+8eouLETkkHdBCfBiMT1ZEIZTOsQZLv8APMA4o+GT9I6P8DX0OCZ+pwPWPWD/AGHE1L0uCQPqIUDvCOgHYhDBQFpn8SgKsaAgAAAupYdGbjxCVmNJ+AmWDBABdoWJAN7cC370s8+0BNni4GpHqIkLeROdBLriGU8mP9xAXKDpbA9YppsPMtQPSg5SppnUG4STsFQIn3s/cHQdSQBcrmu0EwMXMNQ/ACiY0DPMugdhswWQ24eB7VZ7wEkBBgk4gOjj5SM9PEWDuu4QZmQ4WSWacwich7gZkib/AKgBog1UCArtu5vW5YgMB2AW46JEMkIyl4CAALIzxuBNkedIIw96gBI3jOpzwT/SBnAuaHt/cr6N/gZmUB5MwWfBjimB9A6gQsgTxCEEIPczMGekqIv9mJAO0oMWA4EwXBEVrURoHRxBA5LGoPEFSOr3RRh7r+EBQ5d/3hJYfLlMoD3iMzRYULsQUh/aA7KGzBoBgDidg9xn0iPJhDmAe9wONMm36TKrd9R5aYQ9KhCaJB24DFCIGfVGQuMh9Rj7Z6Y6Mv4HJghnghlM+KUfNlwgBk9u4MBARzMQRQxNn9yh6hbS/mWp1uy5hI+TAwME4LSAhhYnkYABDgxWvZCoJooTgEjRCYT6BJlEBA3ZRxcmGdwOQcKQOQLFjMVsOZKbMyglLpwStQAEHeoA0TfLuNyuLcJAseSmSN8x0AfdCAHuIcNDgGUvIIosZzuGG42VESfaCxT2gEiPqx0X2tQJGGDqOoCbAcwoFHRGdk0HHeVMSwXShGL4lCFH9iXCFGQFuAoBQvzw/uAiSMB8AIFQCAG+qsTvGFE/z1hsCHRbMqSQYzCBY+8uJJHvNWb1+YQQVwjwQ47FQZcgglhEYQtBghlkzALp3AVGCIjO5kZ99wGGDk3GINlkjMqCNw/cEGkT0MiL3UQae0ARPHUA4wbhAjXxAAYESoPpCD7hCqFT1hBSLaL+8XzE47k9oQLePEAXffDicalSk3lT5iQHch/qAAoL6CsQJG4bAnnQ95oIeDMeHvIwIT3Q1geXHEHJj2OCAQkPBmCkd3YGQNElwR3MFv4iIG47tOWPk3UDWXmAQyhiDD+JDJYjjpQM2bzMM+JihheaviUGGViIq+0UU9olqBGoIRDgRRLpiZ+/qEDC/wCMZV2NxBFgLtGmMlCpEWhCBLxQNKGW0zOIE/8AXoQBlCMYhsgQg46gNNsaAjcDsm4jXbMet4B/EuWyci4/2NgqhmBoEC8zgEAQZUABcaITaAACjaAU7glAPNwAgFYDhBjsAh2CfChQx2nOg1VntFJnRRO/bFEEl7wdGAv/ABADUANSmoAGoFcHQn04/CyuC32hAIUDKFZ7x4sXBmf3E0YUCAhrNxHCTklSMi3COWu38Rpm7oKsGe+PMcDK2dQE2ga2jO75LxqAG5bFHBbiZWKg2nuce0202eZ4QahADETNwiGDbmCaAF5EJl15AMu5BJ2TArAe8IMcP9JtC+YIgAn0lEkWnxAaCACqI1EcQJ0DxPTpj8W8QozKMH1EJEUYDgBwiSz2MAIn2qGEXoUFIygwf4lVJ15UZvPccIEnyh5cItHQAHCTCkLs7QjLeI5C5CAxCSFOSoEbBYJ3NzGAh7wJEJOiOcIJ2TGZzYwJUET2pZi/MNAKvdw0Al6QxDjxEHDADXxAIrANQJQAgX/5ESsARx0JRfXr8DPQQosjWuIwH2wQSDSzL+IZg5KYUt+SGZGyIwywKZ8SbggDgLGUQ74LjJGOQSh1MyUeacUgFfMMkOu0BhGgOJDd20ohBsCODCNN9qiSjCV8moFCQW4RwcAVfEDp8QQ1E6E8IIEKL8szEpFOKbHgznkYuMjWUyY/ggLY7V2hDlCwGLgXNAbTYEI/eAI8nMVSyzZUDidecmMLHlhN7SCMgHggg9VaEBohb0psO2IWLpTifadijBAqzuaZNJ6KA1+IAQA1AvE8IoovsL6R+Ejo3o4GBBOR4S4ZqsSxhngXCBB7XBRZXDS3DHvLJoYPsPZ3hyDnJSxPAdg5M8+8szUNU4dvUA/4XKKolAqCvnMVAGhFcQHEADUHZB2wdkEL7GvyDCyOkiXIqFsDhMuUIDNeJh7FxGAOXBBAgR8ZBL7zQZtQhAGSPtC4hOwDELHmaE+0dp3qFB4agCKxiCGAPaAGoAQQldCi/RD0A4xwwcDuCQIsZcJAHMZRfKiAUEshy6kAQiC9jUKCQO/iFOB9oarwFUHBDWA0gQouBFB2wdDH2z+WegOZKjnAFqGR4Xx8TKqYSMEfcDAgIQ+8ACOQHvGThzCFZi8IrUCFUDpBBQJ0AiqeEUX6Hrpr6mRuowYgHF9oZW/EEkZKPagT7CVCoIaEEP8A5ACJURAvUX6eWjdRgNRSHohsXoCYCuq15hNb8RQnaEwREEALUH299R0H5h+k9DDYyBOoBiogxETBFIBFF9o/pC6KHo+HSIpF+If0ZdFF9Z+0P0pf8CP/AEIP/9oADAMBAAIAAwAAABAAAAAAAAAAAAAAAAAAAAAAAAAAAAAAAAAAAAAAAAAAAAAAAAAAAAAAAAAAAAAAAAAAAAAAAAAAAAAAAAAAAAAAAAAAAAAAAAAAAAAAAAAAAAAAAAAAAAAAAAAAAAAAAAAAAAAAAAAAAAAAAAAAAAAAAAAAAAAAAAAAAAAAAAAAAAAAAAAAAAAAAAAAAAAAAAAAACAAAAAAAAAAAAAAAAAAAAAAAAAAAAAAAAAAAAAAAAAAAAAAAAAAAAAAAAAAAAAAAAAAAAAAhgAAAAAAAAAAQAQAgAAAAAAAAAAAAAAQQAwAgQAARAAABQEnBDACAAAAAAgACRAhggAAgigBAhAhtijzYmRwxgAAAAgAhyARgBgwAAQC+Z/ttFb/AGQIAgAAAAMQgcQKwQoICu3336iE+Ild0m7cMIEwAAQg0EKgIAAGO0USAdXuSgt203GIESgAAAgIxotNglZiyqVvn+WYVUxaM8AUcAAAAAQI/IhZwjWisNRANqKVEQscg48oAQAAAAQoLTVsOjieMm2W3zIsCEEQEYgAgAAAAQMUZ4eQkpV1tSeyaw4qcMygygAUAAAAAYWUM46nCxUak+wcYsQoMoggQYgAAAAAAYQcKRR9cOXI4o8YwAUwAIQAAAAAQAAAMAA0+uVamUswCgAAAAAAIkAAAAAAAAAAAMMAQ40wMWQAIAUAEAYAIQMAAAAAAAAAAAQEAQgYYgAIAAAogwcggAAAAAAAAAAAAQwAgYwAgAAAQAAAAAAAAAAAAAAAAgAAAAAAgQQAAAAAAgAAAAAAAAAAAAAAAAAAAAAAAAEAAAAAAAAAAAAAAAAAAAAAAAAAAAAAAAAAAAAAAAAAAAAAAAAAAAAAAAAAAAAAAAAAAAAAAAAAAAAAAAAAAAAAAAAAAAAAAAAAAAAAAAAAAAAAAAAAAAAAAAAAAAAAAAAAAAAAAAAAAAAAAAAAAAAAAAAAAAAAAAAAAAAAAAAAAAAAAAAAAAAAAAAAAAAAAAAAAAAAAAAAAAAAAAAAAAAAAAAA/8QAIBEBAQEAAgICAwEAAAAAAAAAAQARITEQQDBBIFGAYf/aAAgBAwEBPxD+N1CQQj7eIQtOoPstOEg4y0310kv6tIT3AtOkv6WjmGcR1npoJJf5kgoBJJVosSI7ud35W/gknNu3PvwcDicWK2Z3cSsNkIjHMd58bxDvgT2hngsg/aAXDrxeXIM8HEwCxq/aDfH38rCB3aPMYeHIjdtDd833DxzB93LLJ3Z6XJkMbO4c6j6lbu6ZFxBBnpnTwObb1ahbC24WB5z1kzwWAmARnt6EY7sfG2+5ty/nn//EAB8RAQEBAAMAAgMBAAAAAAAAAAEAERAhMTBAIEFRgP/aAAgBAgEBPxD/ABxtjmv28WGwD1nEHNj/ACenPrhsUB7dZcC+8QwyVbqnyn47bBYP7tHHVhNp7YcbL3Ofu/o+Tz8AXiGJJcqxB33GBHVjITu0nHFT1Dyfmt/aJae7E4XXy2x4gsEYEusdE4L26EuCY7B8fuTO417GkrY5vDD9Qo2zm18l4O7Ic5Z81djPV1k29ZI8lw6g32MTpnbxnV57e2cZ8y74D9wjIdlNljs9LXjH8Wc5xnxMw5Zvl44H4mdpxkHGfVSG8u5Nrzn2WAmN2uo1d5zjPs5zln+V/wD/xAAtEAEAAgICAQMDBAICAwEAAAABABEhMUFRYRBxgSCRoTBAsdHB8FDhcJDxgP/aAAgBAQABPxD/ANfV/wD4Lr90ghvX/BcenP7fn6K9ef8AgLf2Tn9Al+t/9xCw9LHLqpfpUJe/Hrf7X3mfTPrUQqi859c+pf1LX6WoVyHvqbvpsSnvmoevOhVb1Qy/G5bZmrAr1XYhhF4zN10S3IZ+Jdo9IorEN9Uvyx+4GfUb+iv0xv6a+is+lTKG7/WCOYnhUvuFtKHdNUx4wkGmxmXsoGWlC2LxMHo/hW0Ijd4YZLABOgzWHJcR7yTNbr79K+EJ9VVFejjRW/xmYN4Uzt0B4a8vvLZXrz9A3+hX1/x6Znt6fx6KfU59L9D6gr1WUwZaDL+IzyDbUEzhkJgKqG6IaV2Hyd5lrTGhVLbjO8/Ec5C4VBe11LajW0bdUba/Ebdex27Es0Jsi3fond2JwdnDTzHQIF37a/2oBul8LSzxEdsTkofLkvZCxSgkzgjdWV7g3LqImujQ+4+lxvicy5Uv9d7SpeZT3n6LieufqRFfTctwiJEOVqYV9TB72w+vTwlUNlw7dP4hdnUNG+KmMUG0wXgqDVMaB01ui8Qd0miX5RfzAkCSMkXbbMSyt4lhis05faDAgAF5+6VAUoIGqDj2F+Ybl8pq1nNUuEB5UVzyatcBfaPGPZqFgAaAhn3Q3bxKfc9Bv39B53Of0wFfR49MTjHoxXtG5bL+jN+g3H6h+8vFx5A+832MwGR+D7xfpjgwx7v6hRcQ7RV4c9wQiuYYPfUC8GFPG1HzLzbnKvhj8xFOUdH2Y56gwh0NH2JUpfhGtzRtPeBDQ0Vdd/8A1O0Eie+4y2l9tf7c8thEy3wld6g7Zair+c5gIkmTgUZMYcSgBWAYZ1bD/Ds6Bt/dwoU0YYINY1LO/Q7fVT+gvNSvS847g3G5xHHE8wlwSXMyjXrT6X6XLl7g1EgQ8j/UvBU23X40+JYULdKnyH9ytkosLNf3MvjWAq9BmNiD0S+mcwNQX0mthb1MHZ0ck+8DpFC/d9ofZDzMYxFQnwwyk0Xnig3+cSuU5VM/iooF8hVP2/zDS0fwOKYewgLjA5oPeX5pMu/PHiH10cwhmucwSxTvLW1ZbWXbc0FruNmUMugXdVniEuzLWgzy9IieCXK8pDODfpX1lP01m5ff04jcxfn0NVUr4mePUK04l+lv0HzX3hyxM87up02xE0hulh3buXJyQ7VzUcgQM1NWUid9wU1gZZebzriJE80Mk7pR94axRRix0B/MLiOg0e0omIYxnN5VDbxgG7u6CotkBpCJz94gVQROKL5mW8bjguOW5gQtYlfxLqvIveVcQsYFtN3WuY/KfZ4Zoc8y1WlxVWM6CzVZZX4G3y9xzfi7j+A2daFUv2h28s2fLSuOLa1SLH/MOoCfwlVe5WbQeCnjBAn2vu0LOrVahEXRVuWXLjK9c/WhDM34mZUdY+hnSz/P0FsuWKgdsf0hay/iCACqCinmhgdq1W163ccoQu1unbLqxZ/hA4iQJe9BfaOfsQVwTO+dluPibMLuj2txviAKMHXvKPiU7z1MyQzV5nyyX71fUGBHSvyjmoFLhb/Mt/ONty9/E3kG1Cqo1mMaNbecUXiYbeVd3xrB+If6aLWOsURxU1tiM6xmYKqFCgM6mIqa8ovZ7xJ1XJVYMd+Y5qa2iwEu3v8A24rYKcF12YlTwDdAMus5hBabFchrEvGSm5a/13DrRdVvu9MvyYYAalmpaMvuEW/MJX6jLITR4LazeoV4PEx9CrLzFzLSX5jhPN2ziEFNF+7OkR1eDfiF2nOW13xupcicDIo9iGXBLVqEayxHDishD2lnGgKB+LmrAUIZq73KN8ykQ2oHczeSgS76jHlorrGn8Ql5CGhfkLh6S8317UnllUWjbNcpYfHcJniQGFfG4I+Jl6btX8k0nNkrbltiqbjGpUZLzdWVCsOMEvXBMK0tQldcU8MnxEGW1OG+b3xiGkBvO2TbbD7SANSPL/cR4UNNWaFctQxOEDGGgSuqmK5ChxS/idnlNgcS7k1dGNN/fxNUZe2/aAWrbzibLZVwmyI36SNx15/Qv0XmuIVFxN4HJwEGUKoCqNHaxqg1AWvHniHbaYKb1QMWSsGAV45iWzkDZFBbgDfEovVDL9pi8nofiVIBAChfmGnKKhodZ3KdJM5l+xLrJzo+SWa92L7v9TTILsdFYHUEoKI0QLTRORBCi3UGqG2VNdxZy1dLne44udStF7ZfYJDQ43/Uc4C5zR4WOBSzDWj8wsqBbvAprJ3FYuR2jfJl1LxCNjPsDnzmYFsHhq/N/EqK22XvW8r1Mbo9WRzV4qFpYLdrUtwNuXuVaADuaN1gcQ6IORSwlpTZzSK48TN6DYvGcn4nhTFyV7xxM5hQqvEBq/W5ooZxMYA3viu48OGmlu/CHMzN1HIKhDzMoDTviEYFbCMQweJVriG6YMrM4nmLtv8ASUdepnD3curjFZbtFcA7uoYmTTPVtgXGQLNzNXQ7TxMLkrBS5GLYmwrKpcPXmaZNlwBcNErvd/Oe4K2gpPPz/wDYfUETMfCKAOYPwKz+YXCCbBs49Ljob2uoWBKbcShqrYMpyI1g4F4lUKFFIUnNMt6rzbhvv/qNcXRkXXT4gOCgi5QVoXMZ067bv7TS6as0sUe/cMbVW2Sy6oP7h+QUDNOSs/nEvoalY521uV/dVcM4oMe8BwVduT/FSnVFYMX/AAcwLcycpfEcpQnDeWMtNZFuX1D1hiTbCmucuPmYHdqg4MOfvAtqFDWfHcd5go+z/Sa/gsfnUB0FVRrJDdUTrQX90wsCUvVE9pX6ZXpn2ibYqdKq8RLeGnzdVi9kBPBcKwcXhfc34oswtLfGOIF2Mr53mpbcsV5Pl1xNYC7fDQ9kVLgj4MIf4gV6ZcIvsx+JXiHRgleilVcrdRXIda3DkhQvBH+UFyMwfkH2jvwcw1g95/aerl+fMJqGeayu6lrBsni7PNSjUhsy6KaUlqGZ7DJd1q4y7CW4zdU5qqzcHCBpOykcGCWlzFZC734QPtQawm3RQ5qYNclM2A6WoNwGMF1b1xFfUCaoq8fEvNhbawr7w/Ebpvirm/GbDoNk0YWp8k8c6FGJjrCZca7G4ftLIPFSrvnxAIcJQ717/mVtwbCx8RsHvdIPSFvsmolz8qgAQQidQwh9Cv0t+jvEQWYF1CzAsHR4leSaYZMQXGhFM0MpCNDReVjHTA4caHOYMbHcFFD34jJXkQrOl7ME3+Y7QDa4I8XfVxU4xqMenIr8Es9HHlPbMx9Zs6a77j4sALTeKvmoOFFo5eMuYO0jY34VdBHBWouACmbyfaXdHIQAyV3MUDllQrKyjka1BZqjy5jWMSTKNGai4GZzG8Fm8G4dAU288X3vUrdU5F+b3F0zgc1ZS5IZUvgGt5xMPBl8bjfag0jbR8wIM90KcXUL+4cBx/Moe9Ntue9agq3q1dPGYaWNi+z7y1c+yw94f2d1/CJ4oH+v3mK4kBphzKggyOWcxiBzNnRqVMwGf1mMoqUOTQ05R5AUK+H/AOwCdyluLIK6+IbldwKOqmR+Jg1g8ORqhhyosUxu/lHcAXMqq7dm4NSbdkKGoN4YpoLfAxUXdl1LbKX1FMRmh2lWUySoczdthwccwnCkVtHNLr54g2fV4GqDhnZ1BpgmSQdb/MxRQSGLTC54l8XkXS05/wAog6AjYWuMW3qCqslzhaSxJmIIkXn25i5u6GanQIwfHNRraODQ3iHTEaLGr+8b1RasqPbccvJRnItucOZz3fnxM64Atsq8e8Q3ltmTVmNQ+wZt4N1X3juApVeMTf8AU+HOIKX5mC8pzDI8IIBNpcvrcPj4YIrMViVFQ/P0H6vMvqXQS09Bx/mWS0rBxF3qOkyDGL3dVDLmG75514hmdjcYrftCTFuYqBLqMe9FHFan4srmGygR0WsZ+It2Au6o4MWVopYUCivJMPYIlbvURtR0NrgaHzF/jjqzH9R5RAsYMafN2Q/HRHdyavEV1DF5XZ7ECVlVeCDMtZeRqu4bE9A+B/zFb93TlxqXfsxOMfM/wGHvmbazVCvjLMYjaLpWV9/EetWltf27mMb2dL947kaq8+YXXEz2mFzFUe9wasenxPfM4XLuH7u4D+kCNTGQYQlXv058wlH67n1WWYQXzDhWc7IuDAF7MmZsWvbHUxwDJn8y6Lg7p5s41HKgALDVOfaKPsKGXcxMLQ3CZwoobvFccQUoiu21tElao0ug15mC+Ao55qAqlBYEdF+ZjtaKvhc0JhcygVLYamKqzMYcaB/eX08g0qu1vGo3GLLS5L0NRy4aFg84I4+tKNUa8x9+oMZYPvUYWxW9e8pb7jj8dRHobBoiLJYFy3Gao9PmULOoGx6XBpCln5QtH3h1AynUrFSoEqVic3AlfTX6ly/R7oimc3mFXl7HwV7RHO7DCDQyWJ78RKgIbHT/AO5WVS0w2iXddSxUyb5qOa/WA1tGHZBdbNWZZ3FMOe5mg1EF0RVb0pcmd8y6yF+DwVh1CyqGrMHviK+Ded9r5iI4HfrvOITCHAMPHEFK50TC1ox3MNtaIW1f8V8wItTVWBGs8PJENobc50a1Lgug+zqVKWGL8Q81OwmRMfZMbWb1Du0fAFDHt4l6qEmdcSoXKlfqHH6delxYgx9oNN4NzWYLH06fiONoMclqHnVyFHPGGCoxoLpWf4i4LwAVbbZ/EuQp2cFNUFwyKErs3eQ8VUoCoV7cLn8ajykCqbwvRM065hH2lipJuDrbMYJrlxe2YmeWJbd2wmjK7XHtRcN4CU7Uev5jA4vSNssBWtzzJ2GV5N+8sZ9KnAXuo1yK3j2nENn+bqAG41C0Bc1X4zAaQ7vbub+moUBK3A9czHpXor1r0qV+q+r6PZfxL1XDqZXuRLbLTb21cephzfd6jI6Wh2Ys3hhwuV6LvrVJV56lVBLOyhk/nHcyLNfKldQktktMn3iFsTVaoLg2wXvV3L8AonNmQrqYWt5LvcyoTZe3z4hK6FdvCmpf92he1+HiPZthTxU4vdRgHDqcVDg4OID+4YynUCV616VLlfoV+wv0THoEUe0U/wCiGexND8vxHFyJ1JeO5XzK6bxBU3uttLxDcALtW7lZbC1i8UV8y95QV8IkqLUas+S96mHqy4cBs/MeyksA06ZUbsyO7nSxtf8AfeE8Bg9iaH5zWK6SGKS+oXsQ/RbalcIECV9FTMz9Tn9Q/Qv6FeixQIYQrbtP53B3RS2bu06g4XowA9ZhHbgzT5ldYCBgLpphI2/IPGv7i9wO3d3AFSV5/wB1L3lyMPHfCvjqDBvm7n9Lh2GIcB1DFIBBNZUD67+nP7sSVKHpmKhmaig20USsOt2ZGcAy/wAKbxnH+PnUTsbASqjZreZy9Sg4QdEKouVRe4V1RnWeo4DMPAY5IOkKCDl6a/Yc/tfEPqqJH9WYOhmFHZMzOb6asdvmWDUqsZUXH4Q3HuPKFXzM+PIwrSZOfQF1DgZ8fsRfq/vRIXoiGodWnUtxSoWMgK4YonxkEP0ur9Bx9T+2IypX0kifSfGAh8Z1w6IGB9NfTn6Lnv6X6szP0cTn9vn6qlRlPSZyoH6i/SvRUr0qPofvq+tXpWfQPor9CvqqH73icx9a9cSpXqr9Hn/gX9fH/OvrXpx+rX/jDn/1z//Z;" vertex="1" parent="1">
          <mxGeometry x="738.44" y="406.87" width="113.13" height="113.13" as="geometry" />
        </mxCell>
        <mxCell id="ZBXnXzImjkYbVcLpGCFE-34" value="&lt;font face=&quot;Tahoma&quot;&gt;After fitting the door trim and door handles the door will be detached from car body and sent to door sub line for further fitments before sending to prefinal&amp;nbsp;&lt;/font&gt;" style="text;html=1;strokeColor=none;fillColor=none;align=center;verticalAlign=middle;whiteSpace=wrap;rounded=0;fontSize=20;fontColor=#FEFAE0;" vertex="1" parent="1">
          <mxGeometry x="71.72" y="640" width="245.31" height="150" as="geometry" />
        </mxCell>
        <mxCell id="ZBXnXzImjkYbVcLpGCFE-29" value="Clevis pin is used for break pedal fitment&amp;nbsp;" style="text;html=1;strokeColor=none;fillColor=none;align=center;verticalAlign=middle;whiteSpace=wrap;rounded=0;fontFamily=Tahoma;fontSize=20;fontColor=#000000;fontStyle=1" vertex="1" parent="1">
          <mxGeometry x="709.9" y="495" width="170.21" height="100" as="geometry" />
        </mxCell>
      </root>
    </mxGraphModel>
  </diagram>
</mxfile>
